<?xml version="1.0" encoding="iso-8859-1"?>
<!-- Generator: Adobe Illustrator 19.0.0, SVG Export Plug-In . SVG Version: 6.00 Build 0)  -->
<svg version="1.1" id="Capa_1" xmlns="http://www.w3.org/2000/svg" xmlns:xlink="http://www.w3.org/1999/xlink" x="0px" y="0px"
	 viewBox="0 0 480 480" style="enable-background:new 0 0 480 480;" xml:space="preserve">
<g>
	<g>
		<path d="M206.8,370.344l-74.912-74.912l17.776-17.776l-11.312-11.312l-17.776,17.776L46.8,210.344
			c-3.128-3.128-8.184-3.128-11.312,0C12.6,233.224,0,263.648,0,296c0,29.352,10.464,57.048,29.472,79.032l-21.28,95.224
			c-0.528,2.368,0.048,4.848,1.56,6.752C11.272,478.896,13.568,480,16,480h80c2.472,0,4.808-1.144,6.32-3.088
			c1.512-1.944,2.04-4.496,1.432-6.888l-14.584-57.256c10.304,2.808,21.008,4.368,31.976,4.368c32.352,0,62.776-12.6,85.656-35.48
			c1.504-1.504,2.344-3.536,2.344-5.656S208.304,371.84,206.8,370.344z M25.984,464l16.872-75.544
			c0.304,0.256,0.632,0.488,0.936,0.744c0.696,0.576,1.416,1.112,2.128,1.68c2.032,1.608,4.112,3.16,6.24,4.632
			c1.04,0.72,2.064,1.448,3.12,2.136c2.176,1.408,4.4,2.736,6.664,4c1.984,1.12,4.016,2.144,6.056,3.144
			c1.008,0.48,1.984,1.016,3,1.472L85.704,464H25.984z M121.136,401.128c-13.984,0-27.552-2.72-40.104-7.896
			c-0.072-0.032-0.12-0.112-0.2-0.144c-9.6-3.976-18.432-9.28-26.384-15.808c-2.632-2.168-5.192-4.48-7.648-6.936l-0.008-0.008
			c-0.128-0.128-0.248-0.272-0.368-0.408c-0.52-0.528-0.976-1.096-1.48-1.632l-0.88-0.992c-0.024-0.024-0.048-0.032-0.072-0.056
			C25.968,347.768,16,322.68,16,296c0-25.4,8.944-49.424,25.352-68.48l148.264,148.264
			C170.56,392.184,146.536,401.128,121.136,401.128z"/>
	</g>
</g>
<g>
	<g>
		<path d="M440,256H280c-22.056,0-40,17.944-40,40v96c0,22.056,17.944,40,40,40h54.56l-5.336,32H304v16h32h48h32v-16h-25.224
			l-5.336-32H440c22.056,0,40-17.944,40-40v-96C480,273.944,462.056,256,440,256z M345.44,464l5.328-32h18.456l5.328,32H345.44z
			 M440,416h-64h-32h-64c-13.232,0-24-10.768-24-24h208C464,405.232,453.232,416,440,416z M464,376H256v-80
			c0-13.232,10.768-24,24-24h160c13.232,0,24,10.768,24,24V376z"/>
	</g>
</g>
<g>
	<g>
		<rect x="286.085" y="319.98" transform="matrix(0.7071 -0.7071 0.7071 0.7071 -138.1834 322.3553)" width="67.879" height="16"/>
	</g>
</g>
<g>
	<g>
		<rect x="366.053" y="319.972" transform="matrix(0.7071 -0.7071 0.7071 0.7071 -114.7557 378.8985)" width="67.879" height="16"/>
	</g>
</g>
<g>
	<g>
		<rect x="384" y="128" width="16" height="16"/>
	</g>
</g>
<g>
	<g>
		<rect x="384" y="160" width="16" height="16"/>
	</g>
</g>
<g>
	<g>
		<rect x="384" y="192" width="16" height="16"/>
	</g>
</g>
<g>
	<g>
		<rect x="384" y="224" width="16" height="16"/>
	</g>
</g>
<g>
	<g>
		<rect x="80" y="128" width="16" height="16"/>
	</g>
</g>
<g>
	<g>
		<rect x="80" y="160" width="16" height="16"/>
	</g>
</g>
<g>
	<g>
		<rect x="80" y="192" width="16" height="16"/>
	</g>
</g>
<g>
	<g>
		<rect x="80" y="224" width="16" height="16"/>
	</g>
</g>
<g>
	<g>
		<path d="M456,0h-32h-32h-32h-32c-4.424,0-8,3.584-8,8v32v8h-32V8c0-4.416-3.576-8-8-8h-80c-4.424,0-8,3.584-8,8v40h-32v-8V8
			c0-4.416-3.576-8-8-8h-32H88H56H24c-4.424,0-8,3.584-8,8v32v32v32c0,4.416,3.576,8,8,8h32h32h32h32c4.424,0,8-3.584,8-8V72v-8h32
			v56c0,4.416,3.576,8,8,8h32v24.808c-18.232,3.72-32,19.872-32,39.192c0,4.416,3.576,8,8,8h24v32h16v-32h24c4.424,0,8-3.584,8-8
			c0-19.312-13.768-35.472-32-39.192V128h32c4.424,0,8-3.584,8-8V64h32v8v32c0,4.416,3.576,8,8,8h32h32h32h32c4.424,0,8-3.584,8-8
			V72V40V8C464,3.584,460.424,0,456,0z M48,96H32V80h16V96z M48,64H32V48h16V64z M48,32H32V16h16V32z M80,96H64V80h16V96z M80,64H64
			V48h16V64z M80,32H64V16h16V32z M112,96H96V80h16V96z M112,64H96V48h16V64z M112,32H96V16h16V32z M144,96h-16V80h16V96z M144,64
			h-16V48h16V64z M144,32h-16V16h16V32z M262.632,184h-45.264c3.304-9.312,12.2-16,22.632-16S259.328,174.688,262.632,184z M272,112
			h-64V16h64V112z M352,96h-16V80h16V96z M352,64h-16V48h16V64z M352,32h-16V16h16V32z M384,96h-16V80h16V96z M384,64h-16V48h16V64z
			 M384,32h-16V16h16V32z M416,96h-16V80h16V96z M416,64h-16V48h16V64z M416,32h-16V16h16V32z M448,96h-16V80h16V96z M448,64h-16V48
			h16V64z M448,32h-16V16h16V32z"/>
	</g>
</g>
<g>
</g>
<g>
</g>
<g>
</g>
<g>
</g>
<g>
</g>
<g>
</g>
<g>
</g>
<g>
</g>
<g>
</g>
<g>
</g>
<g>
</g>
<g>
</g>
<g>
</g>
<g>
</g>
<g>
</g>
</svg>
