<?xml version="1.0" encoding="iso-8859-1"?>
<!-- Generator: Adobe Illustrator 19.0.0, SVG Export Plug-In . SVG Version: 6.00 Build 0)  -->
<svg version="1.1" id="Capa_1" xmlns="http://www.w3.org/2000/svg" xmlns:xlink="http://www.w3.org/1999/xlink" x="0px" y="0px"
	 viewBox="0 0 480 480" style="enable-background:new 0 0 480 480;" xml:space="preserve">
<g>
	<g>
		<path d="M280,0H40C17.944,0,0,17.944,0,40v160c0,22.056,17.944,40,40,40h76.896l-10.664,32H80v16h32h80h32v-16h-26.232l-10.664-32
			H280c22.056,0,40-17.944,40-40V40C320,17.944,302.056,0,280,0z M123.096,272l10.664-32h36.472l10.672,32H123.096z M304,200
			c0,13.232-10.768,24-24,24H176h-48H40c-13.232,0-24-10.768-24-24v-8h288V200z M304,176H16V40c0-13.232,10.768-24,24-24h240
			c13.232,0,24,10.768,24,24V176z"/>
	</g>
</g>
<g>
	<g>
		<path d="M180.44,105.344l-43.944-29.296C138.256,69.128,144.544,64,152,64c8.824,0,16,7.176,16,16h16
			c0-14.864-10.24-27.288-24-30.864V32h-16v17.136c-13.76,3.576-24,16-24,30.864c0,2.672,1.336,5.168,3.56,6.656l43.944,29.296
			C165.744,122.872,159.456,128,152,128c-8.824,0-16-7.176-16-16h-16c0,14.864,10.24,27.288,24,30.864V160h16v-17.136
			c13.76-3.576,24-16,24-30.864C184,109.328,182.664,106.832,180.44,105.344z"/>
	</g>
</g>
<g>
	<g>
		<path d="M417.432,352.688C431.216,340.944,440,323.488,440,304c0-35.288-28.712-64-64-64c-35.288,0-64,28.712-64,64
			c0,19.488,8.784,36.944,22.568,48.688C299.32,357.336,272,387.504,272,424v48c0,4.416,3.584,8,8,8h192c4.416,0,8-3.584,8-8v-48
			C480,387.504,452.68,357.336,417.432,352.688z M328,304c0-26.472,21.528-48,48-48s48,21.528,48,48s-21.528,48-48,48
			S328,330.472,328,304z M464,464H288v-40c0-30.88,25.12-56,56-56h64c30.88,0,56,25.12,56,56V464z"/>
	</g>
</g>
<g>
	<g>
		<rect x="336" y="96" width="16" height="16"/>
	</g>
</g>
<g>
	<g>
		<rect x="368" y="96" width="16" height="16"/>
	</g>
</g>
<g>
	<g>
		<rect x="400" y="96" width="16" height="16"/>
	</g>
</g>
<g>
	<g>
		<rect x="432" y="96" width="16" height="16"/>
	</g>
</g>
<g>
	<g>
		<rect x="432" y="128" width="16" height="16"/>
	</g>
</g>
<g>
	<g>
		<rect x="432" y="160" width="16" height="16"/>
	</g>
</g>
<g>
	<g>
		<rect x="432" y="192" width="16" height="16"/>
	</g>
</g>
<g>
	<g>
		<rect x="432" y="224" width="16" height="16"/>
	</g>
</g>
<g>
	<g>
		<rect x="144" y="304" width="16" height="16"/>
	</g>
</g>
<g>
	<g>
		<rect x="144" y="336" width="16" height="16"/>
	</g>
</g>
<g>
	<g>
		<rect x="144" y="368" width="16" height="16"/>
	</g>
</g>
<g>
	<g>
		<rect x="144" y="400" width="16" height="16"/>
	</g>
</g>
<g>
	<g>
		<rect x="144" y="432" width="16" height="16"/>
	</g>
</g>
<g>
	<g>
		<rect x="176" y="432" width="16" height="16"/>
	</g>
</g>
<g>
	<g>
		<rect x="208" y="432" width="16" height="16"/>
	</g>
</g>
<g>
	<g>
		<rect x="240" y="432" width="16" height="16"/>
	</g>
</g>
<g>
</g>
<g>
</g>
<g>
</g>
<g>
</g>
<g>
</g>
<g>
</g>
<g>
</g>
<g>
</g>
<g>
</g>
<g>
</g>
<g>
</g>
<g>
</g>
<g>
</g>
<g>
</g>
<g>
</g>
</svg>
