<svg xmlns="http://www.w3.org/2000/svg" viewBox="0 0 480 480"><path d="M432.157 219.456L431.997 80c0-6.72-4.224-12.736-10.528-15.04l-176-64a16.075 16.075 0 0 0-10.944 0l-176 64A15.995 15.995 0 0 0 47.997 80l-.16 139.456c-1.056 114.208-1.856 196.704 187.104 259.712 1.632.544 3.36.832 5.056.832s3.424-.288 5.056-.8c188.928-63.008 188.192-145.504 187.104-259.744zM239.997 96c35.296 0 64 28.704 64 64s-28.704 64-64 64-64-28.704-64-64 28.704-64 64-64zm80 256h-160c-8.832 0-16-7.168-16-16 0-44.128 35.904-80 80-80h32c44.128 0 80 35.872 80 80 0 8.832-7.168 16-16 16z"/></svg>