<svg xmlns="http://www.w3.org/2000/svg" viewBox="0 0 480.022 480.022"><path d="M96.022 304.007zm256-304v128h128zM159.574 460.135l-24.512-98.336c15.296-14.56 24.96-35.04 24.96-57.792 0-44.096-35.904-80-80-80s-80 35.904-80 80c0 22.752 9.664 43.232 24.96 57.792L.47 460.135c-1.504 6.048.672 12.448 5.536 16.384 4.864 3.904 11.584 4.576 17.152 1.824l56.864-28.448 56.832 28.448c2.272 1.088 4.736 1.664 7.168 1.664 3.552 0 7.104-1.184 10.016-3.488 4.864-3.936 7.04-10.304 5.536-16.384zM80.022 352.007c-26.464 0-48-21.536-48-48s21.536-48 48-48 48 21.536 48 48-21.536 48-48 48z"/><path d="M352.022 160.007c-17.632 0-32-14.368-32-32v-128h-192c-17.632 0-32 14.368-32 32v161.632c54.144 7.84 96 54.08 96 110.368 0 24.192-7.68 47.168-21.888 66.272l19.392 77.728h258.496c17.664 0 32-14.336 32-32v-256h-128zm-176-32c-8.832 0-16-7.168-16-16s7.168-16 16-16h96c8.832 0 16 7.168 16 16s-7.168 16-16 16h-96zm224 192h-160c-8.832 0-16-7.168-16-16s7.168-16 16-16h160c8.832 0 16 7.168 16 16s-7.168 16-16 16zm0-96h-192c-8.832 0-16-7.168-16-16s7.168-16 16-16h192c8.832 0 16 7.168 16 16s-7.168 16-16 16z"/></svg>